<svg viewBox="0 0 24 24" width="24" height="24" fill="none" xmlns="http://www.w3.org/2000/svg">
  <!-- Center: large bold dot -->
  <circle cx="12" cy="12" r="3" fill="white"/>
  <!-- Thin, varied-length lines from messy scattered origins -->
  <line x1="2.5"  y1="3.0"  x2="9.8"  y2="10.2" stroke="white" stroke-width="0.9" stroke-linecap="round" opacity="0.55"/>
  <line x1="6.0"  y1="1.5"  x2="10.4" y2="9.6"  stroke="white" stroke-width="0.7" stroke-linecap="round" opacity="0.4"/>
  <line x1="12.0" y1="1.0"  x2="12.0" y2="9.0"  stroke="white" stroke-width="0.8" stroke-linecap="round" opacity="0.5"/>
  <line x1="17.5" y1="2.0"  x2="13.5" y2="9.5"  stroke="white" stroke-width="0.7" stroke-linecap="round" opacity="0.38"/>
  <line x1="21.5" y1="5.5"  x2="14.6" y2="10.8" stroke="white" stroke-width="0.9" stroke-linecap="round" opacity="0.55"/>
  <line x1="22.5" y1="10.0" x2="15.0" y2="11.8" stroke="white" stroke-width="0.7" stroke-linecap="round" opacity="0.4"/>
  <line x1="21.0" y1="16.5" x2="14.5" y2="13.0" stroke="white" stroke-width="0.8" stroke-linecap="round" opacity="0.5"/>
  <line x1="17.0" y1="22.0" x2="13.2" y2="14.6" stroke="white" stroke-width="0.6" stroke-linecap="round" opacity="0.35"/>
  <line x1="12.5" y1="23.0" x2="12.2" y2="15.0" stroke="white" stroke-width="0.9" stroke-linecap="round" opacity="0.55"/>
  <line x1="7.0"  y1="22.5" x2="10.8" y2="14.8" stroke="white" stroke-width="0.7" stroke-linecap="round" opacity="0.38"/>
  <line x1="2.5"  y1="18.5" x2="9.5"  y2="13.5" stroke="white" stroke-width="0.8" stroke-linecap="round" opacity="0.5"/>
  <line x1="1.0"  y1="12.5" x2="9.0"  y2="12.1" stroke="white" stroke-width="0.6" stroke-linecap="round" opacity="0.35"/>
  <!-- Small scattered origin dots — uneven, messy feel -->
  <circle cx="2.5"  cy="3.0"  r="0.85" fill="white" opacity="0.45"/>
  <circle cx="6.0"  cy="1.5"  r="0.7"  fill="white" opacity="0.32"/>
  <circle cx="12.0" cy="1.0"  r="0.75" fill="white" opacity="0.38"/>
  <circle cx="17.5" cy="2.0"  r="0.65" fill="white" opacity="0.28"/>
  <circle cx="21.5" cy="5.5"  r="0.85" fill="white" opacity="0.45"/>
  <circle cx="22.5" cy="10.0" r="0.7"  fill="white" opacity="0.32"/>
  <circle cx="21.0" cy="16.5" r="0.75" fill="white" opacity="0.38"/>
  <circle cx="17.0" cy="22.0" r="0.6"  fill="white" opacity="0.28"/>
  <circle cx="12.5" cy="23.0" r="0.85" fill="white" opacity="0.45"/>
  <circle cx="7.0"  cy="22.5" r="0.7"  fill="white" opacity="0.32"/>
  <circle cx="2.5"  cy="18.5" r="0.75" fill="white" opacity="0.38"/>
  <circle cx="1.0"  cy="12.5" r="0.65" fill="white" opacity="0.28"/>
</svg>
